PathFileType	4	(X/Y/Z)	Patient4_TMGait_0pt4_02_right_43.trc.trc
DataRate	CameraRate	NumFrames	NumMarkers	Units	OrigDataRate	OrigDataStartFrame	OrigNumFrames
75.675675675676	75.675675675676	4	33	mm	75.675675675676	1	       141
Frame#	Time	Sacral			L.Shoulder			Chest			R.Shoulder			Neck			R.ASIS			L.ASIS			R.Thigh.Superior			R.Thigh.Lateral			R.Thigh.Inferior			R.Patella			L.Thigh.Superior			L.Thigh.Lateral			L.Thigh.Inferior			L.Patella			L.Shank.Superior			L.Shank.Lateral			L.Shank.Inferior			R.Shank.Superior			R.Shank.Lateral			R.Shank.Inferior			R.Heel			R.Midfoot.Superior			R.Midfoot.Lateral			R.Toe			L.Heel			L.Midfoot.Lateral			L.Midfoot.Superior			L.Toe			L.Elbow			L.Wrist			R.Elbow			R.Wrist			
		X1	Y1	Z1	X2	Y2	Z2	X3	Y3	Z3	X4	Y4	Z4	X5	Y5	Z5	X6	Y6	Z6	X7	Y7	Z7	X8	Y8	Z8	X9	Y9	Z9	X10	Y10	Z10	X11	Y11	Z11	X12	Y12	Z12	X13	Y13	Z13	X14	Y14	Z14	X15	Y15	Z15	X16	Y16	Z16	X17	Y17	Z17	X18	Y18	Z18	X19	Y19	Z19	X20	Y20	Z20	X21	Y21	Z21	X22	Y22	Z22	X23	Y23	Z23	X24	Y24	Z24	X25	Y25	Z25	X26	Y26	Z26	X27	Y27	Z27	X28	Y28	Z28	X29	Y29	Z29	X30	Y30	Z30	X31	Y31	Z31	X32	Y32	Z32	X33	Y33	Z33	

1	56.660000000000	817.415765818074	1001.264136300780	467.212484708629	980.967679138801	1437.076300764081	278.819245902612	1087.318782031331	1373.776332841578	439.471054811936	1002.263921126329	1441.219248837056	615.261919276208	963.174958791707	1498.440613426170	435.626769016412	1053.160660102148	948.507122773887	576.919278692908	1031.893786739517	969.241991254426	303.449289158713	1134.566923753539	773.551066804346	548.514205361033	1093.307958011256	653.215093621977	627.050767850371	1182.572202481645	611.788062007503	549.778023505039	1200.772888449798	500.586960513429	574.013311994779	1084.113993266298	753.021069140140	329.267320123620	992.906220201440	635.690643822471	275.555363338713	1079.581662264211	559.182983270271	335.808449927832	1080.111118386193	490.303168655368	347.559805171938	1052.884638444275	417.096506023249	341.133853688038	961.764212767010	303.046940802934	290.686887858676	1010.960644696049	192.557913496227	365.069077757113	1125.335496787895	425.340770375936	586.956823366449	1008.072218673426	387.916327967290	657.310152306593	989.577086988964	277.650357489633	612.359007954804	787.051163351527	217.653458812070	603.620061380954	958.752137144203	157.458072111768	630.342865319380	850.960451241692	154.628365576497	669.824879055643	1023.400298738396	41.921362849281	645.725556278790	881.085102504064	38.473954201429	411.388964937676	953.490700668065	35.439132092117	328.916778373907	1037.342157957446	96.063692343548	354.947454308753	1165.863961694204	43.034865348176	324.404024626318	1018.119436136353	1104.076499555024	119.851756899132	1219.130008741746	933.459030729591	106.492137740625	975.358661463483	1092.981042569565	737.536690360659	1064.600121583176	846.714039191262	735.530663635015	
2	56.673214285714	816.243748835291	1002.288355534396	465.286005452355	982.919394443375	1437.865497117347	277.902980750581	1087.182286888361	1374.283183318831	439.699002563690	1000.323364365652	1442.015558422834	614.402267540353	963.145151695224	1499.129473879760	434.690743286388	1050.880247539330	949.691597905058	577.013126653551	1031.410623737429	969.193422753974	303.592662523757	1133.799616053035	776.480001743498	548.543221859872	1094.504552078155	656.049744843387	627.757069532050	1183.579077709728	615.233630103157	549.936904456544	1203.656149568905	505.200398620287	574.641132440686	1081.608844973130	752.424643149706	330.340284786031	989.621926822263	635.977251459309	275.371558715440	1074.853632247067	558.676902855456	336.378751178528	1074.506775848246	489.994886879059	348.079594297735	1047.400903040448	417.068162233758	341.286050712576	956.336158581994	303.060438304759	290.551468375589	1005.355816467219	192.593386226538	365.136400226189	1130.982666433693	428.045446792571	587.743533902095	1015.694337696271	385.795457271319	658.018901731854	1002.061809613190	274.948001638598	613.208369275500	802.756959380219	206.150827572608	604.276819150246	976.519008432296	153.804217215137	631.421413138508	869.153579135708	146.499902843101	670.910057186643	1046.027960454434	41.678891029776	647.566237105306	875.391447579894	38.428034989940	411.339393037472	947.828024151995	35.422138455105	328.857631432808	1031.695138431447	96.096116123528	354.900570809599	1160.207546278252	43.096471328217	324.412341431923	1022.942640226469	1106.650527632277	117.179946248897	1230.387996148446	945.090813191223	105.236866208376	963.520245096621	1095.253542537301	735.997165028948	1043.375216413986	846.307553733316	733.008654248665	
3	56.686428571429	815.074832119316	1003.283750618902	463.387565252996	984.872048030765	1438.602549897422	277.023087483367	1087.066774552112	1374.745452114120	439.949115012427	998.424386830419	1442.778656339927	613.573502542998	963.135335784221	1499.775716125748	433.788309528000	1048.612232356024	950.813815071651	577.137629073197	1030.992021881084	969.155172331979	303.747228974923	1132.973845006490	779.272399509638	548.621058529508	1095.554921450939	658.765168505387	628.502284112715	1184.382052073095	618.494103980108	550.123778269153	1206.287337186202	509.687058459751	575.293215111202	1079.114884006846	751.820454681164	331.446157568037	986.392867802509	636.242418077078	275.189097602313	1070.181951254949	558.168544477717	336.955695416256	1068.970427857302	489.681686291188	348.594347329098	1041.979438547883	417.026844898904	341.440711184130	950.967689114978	303.066667213236	290.417988578581	999.793833761896	192.617049180710	365.202365559578	1136.466941634545	430.633434533321	588.567351760186	1023.306668323580	383.484151694487	658.839863084679	1014.615412927155	272.103065382297	614.151833277159	818.712150546892	194.362308416075	605.128746208548	994.473687647593	150.059845730647	632.586758639537	887.631439623203	138.206126202877	672.163987046983	1068.903959388659	41.500730740772	649.463902437415	869.739678956265	38.381365925602	411.291958156370	942.203261383353	35.404558197378	328.800768876572	1026.082965293769	96.123516634533	354.860420257815	1154.590083304287	43.151959715477	324.421578610748	1027.679015430901	1109.137345657288	114.588155554168	1241.423776233385	956.652715342134	104.075882361956	951.809570665288	1097.517788205413	734.411989408444	1022.405560820012	845.998907073646	730.502026774266	
4	56.699642857143	813.920483922832	1004.222568547337	461.560254211765	986.822063653727	1439.236774621077	276.224125486944	1086.996855931519	1375.117703906074	440.246561514483	996.626421168779	1443.474635754689	612.814353825395	963.170300922713	1500.339914366154	432.959895652675	1046.378337086305	951.810694772050	577.325978749537	1030.683114011018	969.128425694285	303.930411389282	1132.000851288965	781.759714143097	548.806510092837	1096.259630223580	661.223669801494	629.334568061817	1184.748486423012	621.365375498644	550.388956899488	1208.378746214059	513.897794651770	575.996233837175	1076.651064940835	751.202683177104	332.600657901606	983.268165381329	636.467499324129	275.017276271040	1065.625687447239	557.655623390389	337.541998520087	1063.572888042373	489.357626807397	349.099423957188	1036.684931994955	416.960690867296	341.601630817839	945.715578322986	303.061336113481	290.292254319217	994.314989292621	192.617776038283	365.266494726067	1141.587378759312	433.006994022477	589.468085291843	1030.871038005455	380.850910258786	659.864846901054	1027.264044590782	269.069370249005	615.255607868612	835.167399343803	182.171961066147	606.299091550073	1012.756785878162	146.251664428915	633.889429516232	906.637521822274	129.724245914540	673.684228569744	1092.177474619754	41.556244839631	651.439251763663	864.166412291230	38.335090663377	411.248679389824	936.651612079161	35.385595854505	328.748737276887	1020.540858610578	96.141514085620	354.832192789990	1149.047403639709	43.194736863811	324.432606297217	1032.239516933689	1111.441147118848	112.178728709472	1251.994449311062	968.019488885923	103.112276873584	940.407294131781	1099.756690521595	732.754982461156	1002.022513462938	845.875406046168	728.030110746019	
